<?xml version="1.0" encoding="utf-8"?>
<svg version="1.1" xmlns="http://www.w3.org/2000/svg" xmlns:xlink="http://www.w3.org/1999/xlink" viewBox="0 0 118.7 118.7">
 <path fill="#FCD213" d="M26.2,3C14.4,5.1,5.1,14.4,3,26.2C1,36.6,0,47.8,0,59.4s1,22.7,3,33.2c2.2,11.8,11.4,21.1,23.2,23.2	c10.4,1.9,21.6,2.9,33.2,2.9s22.8-1,33.2-2.9c11.8-2.2,21.1-11.4,23.2-23.2c1.9-10.4,2.9-21.6,2.9-33.2c0-11.6-1-22.8-3-33.2	c-2.2-11.8-11.4-21-23.2-23.2C82.2,1,71,0,59.4,0C47.8,0,36.6,1,26.2,3z"/>
 <path d="M91.5,58.9c-2.4,0-4.5,1.1-5.9,2.8l-4-0.8c0-0.5,0.1-1,0.1-1.6c0-6.1-2.6-11.7-6.7-15.6l3.2-4.3c0.7,0.2,1.3,0.3,2,0.3	c4.2,0,7.6-3.4,7.6-7.5s-3.4-7.5-7.6-7.5s-7.6,3.4-7.6,7.5c0,1.8,0.6,3.3,1.6,4.6L71.2,41c-3.2-1.9-6.9-3-10.9-3	c-3,0-5.9,0.6-8.5,1.8l-3-5.1c1.4-1.4,2.2-3.2,2.2-5.3c0-4.2-3.4-7.5-7.5-7.5s-7.5,3.4-7.5,7.5c0,4.2,3.4,7.5,7.5,7.5	c0.4,0,0.8,0,1.1-0.1l3.1,5.3c-3.7,2.7-6.6,6.6-7.9,11.1l-5-0.9c-0.4-3.8-3.6-6.8-7.5-6.8c-4.2,0-7.6,3.4-7.6,7.5	c0,4.2,3.4,7.5,7.5,7.5c2.8,0,5.2-1.5,6.5-3.7l5.1,1c0,0.5-0.1,1-0.1,1.6c0,5.4,2,10.3,5.3,14.1l-3.2,3.8c-0.8-0.3-1.8-0.5-2.7-0.5	c-4.2,0-7.5,3.4-7.5,7.6s3.4,7.6,7.5,7.6s7.5-3.4,7.5-7.6c0-1.5-0.4-2.9-1.2-4.1l3-3.6c3.6,2.6,7.9,4.2,12.7,4.2	c1.9,0,3.8-0.3,5.6-0.8l1.4,3.4c-1.8,1.4-2.9,3.5-2.9,5.9c0,4.2,3.4,7.6,7.6,7.6s7.6-3.4,7.6-7.6s-3.4-7.6-7.6-7.6	c-0.1,0-0.1,0-0.2,0l-1.4-3.6c5-2.7,8.8-7.2,10.5-12.7l3.2,0.6c0,0.1,0,0.2,0,0.3c0,4.2,3.4,7.6,7.6,7.6s7.6-3.4,7.6-7.6	C99,62.3,95.7,58.9,91.5,58.9z M80.2,29.4c1.6,0,2.8,1.3,2.8,2.8c0,1.6-1.3,2.8-2.8,2.8s-2.8-1.3-2.8-2.8	C77.4,30.6,78.7,29.4,80.2,29.4z M40.6,29.3c0-1.6,1.3-2.8,2.8-2.8s2.8,1.3,2.8,2.8s-1.3,2.8-2.8,2.8S40.6,30.9,40.6,29.3z	 M27.3,55.8c-1.6,0-2.8-1.3-2.8-2.8s1.3-2.8,2.8-2.8s2.8,1.3,2.8,2.8S28.8,55.8,27.3,55.8z M74.7,89.4c0,1.6-1.3,2.8-2.8,2.8	s-2.8-1.3-2.8-2.8s1.3-2.8,2.8-2.8S74.7,87.9,74.7,89.4z M38.2,87.1c-1.6,0-2.8-1.3-2.8-2.8s1.3-2.8,2.8-2.8s2.8,1.3,2.8,2.8	S39.8,87.1,38.2,87.1z M60.3,76.1c-9.2,0-16.7-7.5-16.7-16.7S51,42.6,60.3,42.6S77,50.1,77,59.4S69.5,76.1,60.3,76.1z M91.5,69.3	c-1.6,0-2.8-1.3-2.8-2.8s1.3-2.8,2.8-2.8s2.8,1.3,2.8,2.8S93,69.3,91.5,69.3z"/>
</svg>
