<?xml version="1.0" encoding="utf-8"?>
<svg version="1.1" xmlns="http://www.w3.org/2000/svg" xmlns:xlink="http://www.w3.org/1999/xlink" viewBox="0 0 118.7 118.7">
 <path d="M111.9,0.7H98.5c-3.8,0-6.8,3-6.8,6.8v51.7c0,3.8,3,6.8,6.8,6.8h13.4c3.8,0,6.8-3,6.8-6.8V7.5 C118.7,3.7,115.7,0.7,111.9,0.7z"/>
 <path d="M35.5,3.1H23.2c-5.4,0-9.7,4.3-9.7,9.7s4.3,9.7,9.7,9.7h-7.6c-5.4,0-9.7,4.3-9.7,9.7c0,5.4,4.3,9.7,9.7,9.7H9.7 c-5.4,0-9.7,4.3-9.7,9.7c0,5.4,4.3,9.7,9.7,9.7c-5.4,0-9.7,4.3-9.7,9.7s4.3,9.7,9.7,9.7h25.7l0,0h10.2v15.8 c0,11.8,9.6,21.4,21.4,21.4c0-17.4,5.1-34.4,14.8-48.8l3.2-4.9V3.1H50.6H35.5z"/>
</svg>
