<?xml version="1.0" encoding="utf-8"?>
<svg version="1.1" xmlns="http://www.w3.org/2000/svg" xmlns:xlink="http://www.w3.org/1999/xlink" viewBox="0 0 118.74 118.74">
<path fill="#FCD213" d="M26.18,2.95C14.36,5.12,5.12,14.36,2.95,26.18C1.04,36.62,0,47.78,0,59.37s1.04,22.75,2.95,33.19	c2.17,11.81,11.41,21.05,23.22,23.22c10.44,1.92,21.6,2.95,33.19,2.95s22.75-1.04,33.19-2.95c11.81-2.17,21.05-11.41,23.22-23.22	c1.92-10.44,2.95-21.6,2.95-33.19c0-11.61-1.04-22.78-2.96-33.23C113.61,14.35,104.39,5.13,92.6,2.96C82.15,1.04,70.98,0,59.37,0	C47.78,0,36.62,1.04,26.18,2.95z"/>
<path d="M38.49,37.56L38.49,37.56c-3.13,0-5.67,2.54-5.67,5.67s2.54,5.67,5.67,5.67h0c3.13,0,5.67-2.54,5.67-5.67	S41.62,37.56,38.49,37.56z"/>
 <path d="M52.15,46.73h30.26c1.93,0,3.5-1.57,3.5-3.5s-1.57-3.5-3.5-3.5H52.15c-1.93,0-3.5,1.57-3.5,3.5S50.22,46.73,52.15,46.73z"/>
 <path d="M38.49,53.74L38.49,53.74c-3.13,0-5.67,2.54-5.67,5.67c0,3.13,2.54,5.67,5.67,5.67h0c3.13,0,5.67-2.54,5.67-5.67	C44.16,56.28,41.62,53.74,38.49,53.74z"/>
 <path d="M82.41,55.91H52.15c-1.93,0-3.5,1.57-3.5,3.5s1.57,3.5,3.5,3.5h30.26c1.93,0,3.5-1.57,3.5-3.5S84.35,55.91,82.41,55.91z"/>
 <path d="M38.49,69.84L38.49,69.84c-3.13,0-5.67,2.54-5.67,5.67c0,3.13,2.54,5.67,5.67,5.67h0c3.13,0,5.67-2.54,5.67-5.67	C44.16,72.38,41.62,69.84,38.49,69.84z"/>
 <path d="M82.41,72.01H52.15c-1.93,0-3.5,1.57-3.5,3.5s1.57,3.5,3.5,3.5h30.26c1.93,0,3.5-1.57,3.5-3.5S84.35,72.01,82.41,72.01z"/>
</svg>
