<?xml version="1.0" encoding="utf-8"?>
<svg version="1.1" xmlns="http://www.w3.org/2000/svg" xmlns:xlink="http://www.w3.org/1999/xlink" viewBox="0 0 118.74 118.74">
	<path fill="#FCD213" d="M26.18,2.95C14.36,5.12,5.12,14.36,2.95,26.18C1.04,36.62,0,47.78,0,59.37s1.04,22.75,2.95,33.19 c2.17,11.81,11.41,21.05,23.22,23.22c10.44,1.92,21.6,2.95,33.19,2.95s22.75-1.04,33.19-2.95c11.81-2.17,21.05-11.41,23.22-23.22 c1.92-10.44,2.95-21.6,2.95-33.19c0-11.61-1.04-22.78-2.96-33.23C113.61,14.35,104.39,5.13,92.6,2.96C82.15,1.04,70.98,0,59.37,0 C47.78,0,36.62,1.04,26.18,2.95z"/>
 <path d="M78.48,66.54v3.08h7v-3.08c0-6.21-5.05-11.27-11.27-11.27H62.87v-5.9h-7v5.9H44.52c-6.21,0-11.27,5.05-11.27,11.27v3.08h7 v-3.08c0-2.35,1.91-4.27,4.27-4.27h11.35v7.35h7v-7.35h11.35C76.57,62.28,78.48,64.19,78.48,66.54z"/>
	<path d="M59.25,45.24c3.64,0,6.6-2.95,6.6-6.6s-2.95-6.6-6.6-6.6c-3.64,0-6.6,2.95-6.6,6.6S55.61,45.24,59.25,45.24z"/>
	<path d="M36.76,73.5c-3.64,0-6.6,2.95-6.6,6.6l0,0c0,3.64,2.95,6.6,6.6,6.6s6.6-2.95,6.6-6.6l0,0 C43.36,76.45,40.4,73.5,36.76,73.5z"/>
	<path d="M59.37,73.5c-3.64,0-6.6,2.95-6.6,6.6l0,0c0,3.64,2.95,6.6,6.6,6.6c3.64,0,6.6-2.95,6.6-6.6l0,0 C65.97,76.45,63.01,73.5,59.37,73.5z"/>
	<path d="M81.98,73.5c-3.64,0-6.6,2.95-6.6,6.6l0,0c0,3.64,2.95,6.6,6.6,6.6c3.64,0,6.6-2.95,6.6-6.6l0,0 C88.58,76.45,85.63,73.5,81.98,73.5z"/>
</svg>
