<?xml version="1.0" encoding="utf-8"?>
<svg version="1.1" xmlns="http://www.w3.org/2000/svg" xmlns:xlink="http://www.w3.org/1999/xlink" x="0px" y="0px" viewBox="0 0 118.74 118.74">
	<path fill="#fcd213" d="M26.18,2.95C14.36,5.12,5.12,14.36,2.95,26.18C1.04,36.62,0,47.78,0,59.37s1.04,22.75,2.95,33.19 c2.17,11.81,11.41,21.05,23.22,23.22c10.44,1.92,21.6,2.95,33.19,2.95s22.75-1.04,33.19-2.95c11.81-2.17,21.05-11.41,23.22-23.22 c1.92-10.44,2.95-21.6,2.95-33.19c0-11.61-1.04-22.78-2.96-33.23C113.61,14.35,104.39,5.13,92.6,2.96C82.15,1.04,70.98,0,59.37,0 C47.78,0,36.62,1.04,26.18,2.95z"/>
 <path d="M80.85,77.35H44.34c-1.63,0-2.95-1.32-2.95-2.95V37.89c0-1.93-1.57-3.5-3.5-3.5s-3.5,1.57-3.5,3.5V74.4 c0,5.49,4.46,9.95,9.95,9.95h36.51c1.93,0,3.5-1.57,3.5-3.5S82.78,77.35,80.85,77.35z"/>
 <path d="M50.1,73.56c1.93,0,3.5-1.57,3.5-3.5v-7.78c0-1.93-1.57-3.5-3.5-3.5s-3.5,1.57-3.5,3.5v7.78 C46.6,71.99,48.17,73.56,50.1,73.56z"/>
 <path d="M62.15,73.56c1.93,0,3.5-1.57,3.5-3.5V47.93c0-1.93-1.57-3.5-3.5-3.5c-1.93,0-3.5,1.57-3.5,3.5v22.13 C58.65,71.99,60.21,73.56,62.15,73.56z"/>
 <path d="M74.19,73.56c1.93,0,3.5-1.57,3.5-3.5V54.59c0-1.93-1.57-3.5-3.5-3.5s-3.5,1.57-3.5,3.5v15.47 C70.69,71.99,72.25,73.56,74.19,73.56z"/>
</svg>
